<svg width="61" height="60" viewBox="0 0 61 60" fill="none" xmlns="http://www.w3.org/2000/svg">
<path d="M14.8778 3.97061L15.7908 3.31165L17.3969 8.81994L16.6192 9.37753L13.5254 7.19787L14.6073 10.8306L13.8297 11.3882L9.09595 8.16097L10.0765 7.45131L13.2718 9.74925L12.1391 5.96441L12.8153 5.47441L16.0613 7.77235L14.8778 3.97061Z" fill="#E0E0E0"/>
<path d="M22.7883 6.47121L21.8754 5.5419L19.5254 6.45432L19.4747 7.75536L18.3589 8.19467L18.7139 2.26396L19.6099 1.92603L23.8872 6.06569L22.7883 6.47121ZM19.5592 5.45742L21.1822 4.83224L19.6438 3.26086L19.5592 5.45742Z" fill="#E0E0E0"/>
<path d="M24.7008 6.03207L23.8555 1.68964L22.1987 2.01068L22.0127 1.04757L26.5097 0.168945L26.6957 1.13205L25.022 1.45309L25.8673 5.79552L24.7008 6.03207Z" fill="#E0E0E0"/>
<path d="M28.7395 5.20415C28.3337 4.9845 28.0125 4.66346 27.7927 4.24105C27.5729 3.81863 27.4546 3.34553 27.4546 2.78794C27.4546 2.23035 27.556 1.75725 27.7589 1.33483C27.9787 0.912417 28.283 0.591381 28.6887 0.354829C29.0945 0.118276 29.5679 0 30.1089 0C30.4639 0 30.802 0.0506898 31.1401 0.152069C31.4613 0.253449 31.7318 0.405519 31.9516 0.591381L31.5797 1.45311C31.343 1.28414 31.1063 1.14897 30.8696 1.06449C30.6329 0.980003 30.3963 0.94621 30.1427 0.94621C29.6693 0.94621 29.2974 1.11518 29.0438 1.41931C28.7902 1.72345 28.6718 2.17966 28.6718 2.77104C28.6718 3.36242 28.8071 3.81863 29.0776 4.12277C29.3312 4.42691 29.7031 4.57898 30.1934 4.57898C30.447 4.57898 30.6837 4.52829 30.9203 4.44381C31.157 4.35932 31.3768 4.22415 31.6135 4.03829L32.0023 4.88312C31.7995 5.08588 31.529 5.23795 31.2078 5.35622C30.8865 5.4745 30.5484 5.52519 30.1765 5.52519C29.6186 5.52519 29.1452 5.42381 28.7395 5.20415Z" fill="#E0E0E0"/>
<path d="M37.2447 0.912345L38.3943 1.1489L37.3123 6.43754L36.1627 6.20098L36.6192 3.97063L34.1847 3.46373L33.7282 5.69409L32.5786 5.45753L33.6437 0.185791L34.7933 0.422344L34.3538 2.56821L36.7882 3.07511L37.2447 0.912345Z" fill="#E0E0E0"/>
<path d="M46.0352 4.64672L47.1003 5.23811L42.3497 8.78639L41.5044 8.31329L41.9947 2.39948L43.0767 3.00775L42.654 7.2488L46.0352 4.64672Z" fill="#E0E0E0"/>
<path d="M44.5647 10.2223L47.8783 5.94745L48.825 6.674L45.5114 10.9657L44.5647 10.2223Z" fill="#E0E0E0"/>
<path d="M50.1438 7.7218L51.5978 9.2425C52.0035 9.66491 52.274 10.1042 52.4093 10.5604C52.5445 11.0166 52.5445 11.456 52.4093 11.9122C52.274 12.3515 52.0035 12.7739 51.5978 13.1625C51.192 13.5511 50.7694 13.8046 50.3129 13.9229C49.8733 14.0411 49.4169 14.0242 48.9773 13.8553C48.5378 13.7032 48.0982 13.3991 47.6925 12.9766L46.2385 11.456L50.1438 7.7218ZM48.318 12.2332C49.1126 13.0611 49.9241 13.078 50.7694 12.2839C51.6147 11.4897 51.6316 10.6787 50.837 9.83388L50.2791 9.2425L47.7432 11.6418L48.318 12.2332Z" fill="#E0E0E0"/>
<path d="M49.9568 15.6124L54.5553 12.7569L56.5164 15.9166L55.7218 16.4066L54.3693 14.2269L53.2873 14.8859L54.5553 16.9304L53.7607 17.4204L52.4927 15.3759L51.3431 16.0855L52.6956 18.2652L51.901 18.7552L49.9568 15.6124Z" fill="#E0E0E0"/>
<path d="M52.8482 20.1915C52.9327 19.7353 53.1187 19.3467 53.4399 19.0087C53.7611 18.6708 54.1838 18.4004 54.7079 18.1977C55.232 18.0118 55.7391 17.9442 56.1956 17.9949C56.669 18.0625 57.0747 18.2315 57.4129 18.5187C57.7679 18.806 58.0215 19.2115 58.2074 19.7184C58.3934 20.2253 58.4441 20.6984 58.3765 21.1546C58.3089 21.6108 58.106 21.9994 57.7848 22.3374C57.4636 22.6753 57.0409 22.9456 56.5168 23.1484C55.9927 23.3343 55.4856 23.4018 55.0291 23.3512C54.5557 23.2836 54.15 23.1146 53.8119 22.8274C53.4568 22.5401 53.2032 22.1346 53.0173 21.6277C52.8144 21.1039 52.7637 20.6308 52.8482 20.1915ZM54.691 22.1346C55.0798 22.2698 55.5532 22.236 56.1111 22.0332C56.669 21.8305 57.0578 21.5601 57.2607 21.2053C57.4636 20.8505 57.4974 20.4787 57.3452 20.0394C57.1931 19.617 56.9226 19.3298 56.5337 19.2115C56.1449 19.0932 55.6715 19.1101 55.1136 19.3298C54.5557 19.5494 54.1669 19.8029 53.9471 20.1577C53.7442 20.5125 53.7104 20.8842 53.8626 21.3067C54.0316 21.7122 54.3021 21.9994 54.691 22.1346Z" fill="#E0E0E0"/>
<path d="M59.9825 30.0589L60.0332 31.1741L54.6232 31.3769L54.5894 30.4814L57.9199 27.6596L54.488 27.7948L54.4373 26.6796L59.8472 26.4769L59.881 27.3555L56.5674 30.1772L59.9825 30.0589Z" fill="#E0E0E0"/>
<path d="M54.64 33.2863C54.9443 32.9483 55.3163 32.6949 55.7558 32.5597C56.2123 32.4246 56.7026 32.4077 57.2605 32.5259C57.8184 32.6273 58.2748 32.8301 58.6468 33.1173C59.0187 33.4046 59.2723 33.7594 59.4245 34.1987C59.5766 34.638 59.5935 35.1111 59.4921 35.6349C59.3906 36.1587 59.1878 36.598 58.9004 36.9528C58.613 37.3077 58.241 37.5442 57.7846 37.6794C57.3281 37.8146 56.8378 37.8315 56.2799 37.7132C55.722 37.6118 55.2656 37.4091 54.8936 37.1218C54.5217 36.8346 54.2681 36.4797 54.1159 36.0404C53.9638 35.6011 53.9469 35.128 54.0483 34.6042C54.1497 34.0804 54.3357 33.6411 54.64 33.2863ZM55.2148 35.9053C55.4853 36.2263 55.908 36.429 56.4828 36.5473C57.0745 36.6656 57.5479 36.6149 57.9029 36.429C58.2579 36.2432 58.4777 35.9221 58.5622 35.4659C58.6468 35.0266 58.5622 34.638 58.2917 34.3339C58.0212 34.0297 57.5986 33.8101 57.0238 33.7087C56.4321 33.5904 55.9587 33.6411 55.6037 33.827C55.2486 34.0128 55.0289 34.3339 54.9443 34.7732C54.8598 35.2125 54.9612 35.6011 55.2148 35.9053Z" fill="#E0E0E0"/>
<path d="M55.435 46.111L54.9278 47.1248L50.9548 42.9852L51.3775 42.1234L55.1307 42.6134L52.4933 39.8762L52.9159 39.0145L58.6133 39.7241L58.0723 40.8055L54.1839 40.231L56.9396 43.0697L56.5677 43.8131L52.6285 43.2555L55.435 46.111Z" fill="#E0E0E0"/>
<path d="M44.7004 56.2657L43.7706 56.9247L42.249 51.3995L43.0267 50.8419L46.1036 53.0553L45.0893 49.4057L45.8669 48.8481L50.533 52.1767L49.5356 52.8695L46.4079 50.504L47.473 54.3057L46.7799 54.7788L43.5846 52.4133L44.7004 56.2657Z" fill="#E0E0E0"/>
<path d="M36.8389 53.6298L37.7349 54.576L40.1018 53.6974L40.1694 52.3964L41.3021 51.9739L40.8456 57.9046L39.9496 58.2426L35.74 54.0353L36.8389 53.6298ZM40.0341 54.6943L38.4112 55.2857L39.9327 56.8909L40.0341 54.6943Z" fill="#E0E0E0"/>
<path d="M34.9107 54.0354L35.6884 58.3947L37.3621 58.0906L37.5311 59.0537L33.0172 59.8647L32.8481 58.9016L34.5219 58.5975L33.7442 54.2382L34.9107 54.0354Z" fill="#E0E0E0"/>
<path d="M30.8722 54.8127C31.2779 55.0493 31.5823 55.3703 31.802 55.7927C32.0218 56.2151 32.1232 56.7051 32.1232 57.2458C32.1232 57.8034 32.0049 58.2765 31.7851 58.6989C31.5653 59.1214 31.261 59.4424 30.8384 59.662C30.4326 59.8817 29.9593 60 29.4014 60C29.0463 60 28.7082 59.9493 28.3701 59.831C28.0489 59.7127 27.7784 59.5607 27.5586 59.3748L27.9474 58.53C28.1841 58.7158 28.4208 58.8341 28.6406 58.9186C28.8604 59.0031 29.114 59.0369 29.3675 59.0369C29.8409 59.0369 30.2129 58.8848 30.4834 58.5807C30.7369 58.2765 30.8722 57.8203 30.8722 57.2289C30.8722 56.6375 30.7539 56.1813 30.4834 55.8772C30.2129 55.5731 29.8578 55.4041 29.3845 55.4041C29.1309 55.4041 28.8942 55.4379 28.6575 55.5224C28.4208 55.6069 28.1841 55.7251 27.9474 55.911L27.5755 55.0662C27.7784 54.8803 28.0489 54.7282 28.387 54.6099C28.7082 54.5086 29.0632 54.441 29.4183 54.441C29.9931 54.4579 30.4664 54.5762 30.8722 54.8127Z" fill="#E0E0E0"/>
<path d="M22.299 58.9522L21.1494 58.6987L22.3159 53.427L23.4656 53.6805L22.9753 55.8939L25.4098 56.4346L25.9 54.2211L27.0496 54.4746L25.8831 59.7463L24.7335 59.4929L25.2069 57.3639L22.7724 56.8232L22.299 58.9522Z" fill="#E0E0E0"/>
<path d="M13.5575 55.0829L12.5093 54.4747L17.3106 51.0109L18.139 51.484L17.5473 57.3809L16.4653 56.7557L16.9556 52.5147L13.5575 55.0829Z" fill="#E0E0E0"/>
<path d="M15.1304 49.5241L11.7492 53.7313L10.8193 52.9879L14.2006 48.7806L15.1304 49.5241Z" fill="#E0E0E0"/>
<path d="M9.40064 51.8896L7.99743 50.3182C7.60859 49.8789 7.355 49.4227 7.21975 48.9665C7.10141 48.5103 7.11832 48.0541 7.27047 47.6148C7.42263 47.1755 7.71003 46.7699 8.13268 46.3982C8.55534 46.0265 8.9949 45.7899 9.43446 45.6886C9.89092 45.5872 10.3305 45.621 10.77 45.7899C11.2096 45.9589 11.6323 46.2799 12.0211 46.7192L13.4243 48.2906L9.40064 51.8896ZM11.3787 47.4289C10.6179 46.5672 9.78948 46.5334 8.92727 47.2937C8.06506 48.0541 8.01434 48.882 8.77512 49.7268L9.31611 50.3351L11.9028 48.0203L11.3787 47.4289Z" fill="#E0E0E0"/>
<path d="M9.80366 44.0497L5.17138 46.8207L3.26099 43.6273L4.05557 43.1542L5.37425 45.3507L6.45625 44.7086L5.2221 42.6473L6.01669 42.1741L7.25083 44.2355L8.41736 43.5428L7.09868 41.3462L7.89327 40.8731L9.80366 44.0497Z" fill="#E0E0E0"/>
<path d="M6.99833 39.4368C6.9138 39.893 6.71093 40.2816 6.38971 40.6195C6.06849 40.9574 5.64584 41.2278 5.10484 41.3968C4.58075 41.5826 4.07357 41.6333 3.61711 41.5657C3.16064 41.4981 2.75489 41.3123 2.39986 41.0081C2.06174 40.704 1.79124 40.2985 1.62218 39.7916C1.45312 39.2847 1.4024 38.8116 1.48693 38.3554C1.57146 37.9161 1.77434 37.5105 2.09555 37.1726C2.41677 36.8347 2.83942 36.5643 3.38042 36.3954C3.90451 36.2095 4.41169 36.1588 4.86816 36.2264C5.32462 36.294 5.73037 36.4798 6.0854 36.784C6.42352 37.0881 6.69402 37.4936 6.86308 38.0005C7.03214 38.5074 7.08286 38.9805 6.99833 39.4368ZM5.18938 37.4599C4.80053 37.3247 4.32716 37.3416 3.76926 37.5443C3.21136 37.7471 2.82252 38.0174 2.60274 38.3554C2.38296 38.6933 2.34915 39.0819 2.5013 39.5212C2.65346 39.9437 2.90705 40.2309 3.29589 40.3661C3.66782 40.5012 4.1412 40.4674 4.716 40.2816C5.27391 40.0788 5.67965 39.8085 5.88253 39.4705C6.10231 39.1326 6.13612 38.744 5.98396 38.3216C5.83181 37.8823 5.57822 37.595 5.18938 37.4599Z" fill="#E0E0E0"/>
<path d="M0.0169061 29.4507L0 28.3186L5.40996 28.2003L5.42687 29.0958L2.04564 31.8669L5.49449 31.7824L5.5114 32.8976L0.101437 33.0158L0.0845307 32.1372L3.44885 29.3662L0.0169061 29.4507Z" fill="#E0E0E0"/>
<path d="M5.40811 26.3081C5.1038 26.6461 4.73187 26.8826 4.2754 27.0009C3.81894 27.1192 3.32866 27.1361 2.77076 27.0178C2.21286 26.8995 1.75639 26.6968 1.40136 26.4095C1.04633 26.1223 0.792741 25.7506 0.640586 25.3112C0.505337 24.8719 0.488431 24.3988 0.589868 23.875C0.691304 23.3512 0.911084 22.9119 1.19849 22.574C1.5028 22.2361 1.87473 21.9995 2.3312 21.8812C2.78766 21.763 3.27794 21.7461 3.83584 21.8643C4.39375 21.9826 4.85021 22.1854 5.20524 22.4726C5.57717 22.7599 5.83077 23.1316 5.96602 23.5709C6.10126 24.0102 6.11817 24.4833 6.01673 25.0071C5.9153 25.5309 5.71242 25.9533 5.40811 26.3081ZM4.86712 23.6723C4.61353 23.3512 4.19087 23.1316 3.59916 23.0133C3.00744 22.895 2.53407 22.9288 2.17904 23.1147C1.82401 23.3005 1.58733 23.6216 1.5028 24.0609C1.41827 24.5002 1.48589 24.8888 1.75639 25.193C2.02689 25.4971 2.43264 25.7168 3.02435 25.835C3.61606 25.9533 4.08944 25.9195 4.44446 25.7337C4.79949 25.5478 5.03618 25.2268 5.12071 24.7875C5.22215 24.365 5.13762 23.9933 4.86712 23.6723Z" fill="#E0E0E0"/>
<path d="M4.83631 13.4665L5.3604 12.4696L9.26571 16.6769L8.82615 17.5217L5.07299 16.9641L7.64273 19.752L7.20317 20.5969L1.52271 19.8027L2.08061 18.7214L5.96902 19.3634L3.26404 16.4741L3.65288 15.7306L7.5751 16.3558L4.83631 13.4665Z" fill="#E0E0E0"/>
<path d="M26.7486 41.577C24.7592 42.7498 22.2462 41.3291 22.2253 39.0198L22.0667 21.4997C22.0458 19.1904 24.5326 17.7244 26.543 18.861L41.7952 27.4837C43.8055 28.6202 43.8317 31.5069 41.8422 32.6796L26.7486 41.577Z" fill="#E0E0E0"/>
</svg>
